<svg xmlns="http://www.w3.org/2000/svg" viewBox="0 0 1000 1000"><path fill="#093d31" d="M0 0v1000h1000V0H0Z"/><path fill="#397760" d="M71 450c-9 2-18 9-19 16v77c0 10-3 23 5 31 9 10 23 8 37 8h75c11 0 25 2 36-1 11-2 18-11 19-20 2-24 0-49 0-73 0-10 2-22-6-31-9-9-24-8-37-8h-74c-12 0-25-2-36 1m237 0c-15 4-15 16-15 26v69c0 10-2 22 6 31s24 6 36 6h79c11 0 26 2 37-1 14-4 15-16 15-26v-68c0-11 2-23-7-32-9-8-25-6-37-6h-78c-11 0-26-2-36 1m245 0c-12 2-18 11-18 20v74c0 10-3 23 6 32 9 8 25 6 37 6h76c11 0 25 2 37 0 12-3 17-14 18-23v-71c0-11 2-23-7-32-8-9-24-7-37-7h-75c-12 0-26-2-37 1m242 0c-10 2-17 10-18 18v76c0 10-2 23 6 31 10 9 25 7 38 7h76c11 0 26 2 36-1 14-3 15-15 15-25v-70c0-9 3-22-4-30-9-9-24-7-37-7h-76c-11 0-25-2-36 1M71 634c-10 2-18 9-19 17v76c0 10-3 23 4 31 9 10 24 9 38 9h73c12 0 26 2 38-1 11-3 18-11 19-20 3-24 0-50 0-74 0-10 2-22-6-31-9-9-24-8-37-8h-74c-12 0-25-2-36 1m242 0c-11 2-19 9-20 18v75c0 10-3 23 5 32 8 10 24 8 37 8h74c11 0 26 2 37-1 11-2 19-9 20-18v-77c0-10 2-22-7-31s-24-7-37-7h-73c-11 0-25-1-36 1m241 0c-12 2-18 11-19 20-2 24 0 49 0 73 0 10-2 23 5 31 8 10 24 9 37 9h73c13 0 27 1 39-1 13-3 19-11 19-21 3-24 1-49 1-73 0-11 2-23-7-32-10-9-25-7-38-7h-73c-11 0-25-2-37 1m243 0c-11 2-19 10-20 18-2 25 0 50 0 75 0 10-2 23 5 31 9 10 24 9 37 9h73c13 0 26 1 38-1 11-3 18-10 18-19 2-25 0-50 0-75 0-10 3-23-4-31-9-10-24-8-38-8h-74c-11 0-25-2-35 1M70 819c-11 2-18 10-18 18-2 25 0 50 0 74 0 10-3 23 4 31 9 10 23 9 37 9h75c11 0 26 2 37-1s17-10 19-19v-76c0-10 2-22-7-31-9-8-24-6-36-6h-76c-11 0-25-2-35 1m241 0c-10 2-17 9-18 17-3 25 0 50 0 75 0 10-3 23 5 31 9 10 23 9 37 9h74c12 0 27 2 39-2 12-3 17-11 18-20 2-24 0-49 0-73 0-10 3-22-6-31s-24-7-37-7h-77c-11 0-25-2-35 1m243 0c-11 2-18 10-19 18-2 24 0 50 0 74 0 10-3 23 5 31 9 10 23 9 37 9h73c13 0 27 2 39-1s18-11 19-20c3-24 1-50 1-75 0-10 2-22-8-31-9-8-24-6-37-6h-73c-12 0-25-1-37 1m240 0c-13 3-17 13-17 22v70c0 10-3 23 5 31 9 10 23 9 36 9h75c12 0 26 2 37-1 18-5 18-16 18-28v-67c0-10 3-22-5-30-10-9-24-7-38-7h-75c-11 0-25-2-36 1ZM249 278c-5-10-7-20-10-31-7-30-11-63-21-91-5-12-20-18-30-10-6 4-9 11-11 18l-9 25-12 36H98c-10 0-20 0-24 9s0 20 8 22c7 3 14 2 22 2h42c8 0 18 1 25-3 19-9 14-37 27-51a4415 4415 0 0 0 30 130c4 15 9 39 29 29 17-7 15-36 17-50 7-39 11-78 16-117 2-15 7-32 7-49 8 18 8 41 11 60l21 127 7 45c2 8 4 17 14 21 21 12 28-20 33-34l52-152c8 12 13 35 29 42 8 4 22 2 32 2h73c10-3 15-14 11-23-4-11-18-10-28-10h-50c-7 0-17 1-23-1-5-2-7-11-9-16-6-14-14-44-32-48-20-3-26 21-30 35l-28 83c-6 18-15 36-17 55-9-17-9-41-12-60l-24-145-7-46c-2-9-2-20-9-27-9-10-25-6-31 6-4 7-4 19-6 27l-16 120c-3 23-9 47-9 70ZM746 62a171 171 0 0 0-116 69c-44 63-37 151 16 206a166 166 0 0 0 252-17c52-73 35-179-40-230-17-12-37-20-58-24-17-4-36-6-54-4"/><path fill="#093d31" d="m756 182-15 6a44 44 0 0 0 9 77 45 45 0 0 0 40-6c30-23 19-69-18-77h-16Z"/><path fill="#397760" d="M761 213c-15 4-8 27 7 23 15-5 8-27-7-23"/></svg>