<svg xmlns="http://www.w3.org/2000/svg" width="1024" height="1024" fill="none">
  <path fill="#5B3BCB" d="M137 2C70 11 18 58 4 127c-5 27-4 54-4 81v616c0 49 2 94 31 135 7 10 14 18 23 26 57 50 137 38 206 38h551c30 0 60 1 89-4 65-11 114-68 122-135 3-26 2-53 2-79V202c0-51-2-101-35-143-20-26-48-45-79-53-22-6-45-5-67-5H207c-23 0-48-3-70 1Z"/>
  <path fill="#FFD02F" d="M340 162c-8 2-16 1-24 2-19 2-39 8-57 17a205 205 0 0 0-109 152c-3 20-2 41-2 61v93l2 59c0 43-1 84 19 123 21 40 54 71 95 87 4 2 11 3 14 7 6 5 4 18 4 25v70c0 12 1 30 18 28 7 0 12-5 18-9l29-20 86-60c14-9 29-24 45-29 8-4 19-2 28-2h55c81 0 169 12 238-42 40-31 67-77 75-129 4-33 1-68 1-101V389c0-21 2-42-2-63-8-42-28-81-57-111-13-12-28-23-43-32-49-26-108-21-162-21H432c-30 0-62-4-92 0Z"/>
  <path fill="#5B3BCB" d="M580 352c20-17 44-28 69-33l8-1c17 2 17 20 17 33l-1 19c-4 12-18 11-27 16-18 10-39 37-36 60 1 10 10 10 18 10 15 0 33-3 46 7 12 10 14 26 14 42v22c0 28 6 74-28 83-10 3-21 2-31 2h-40c-15 0-29 0-40-11-21-21-13-62-13-89 0-48-2-97 25-139l19-21Zm-198-1c20-17 43-28 68-33l8-1c17 1 17 20 17 33 0 6 1 13-1 19-3 12-18 11-27 16-17 10-39 37-36 59 1 11 11 11 18 11 15 0 34-3 46 7 13 10 14 26 14 42v22c0 28 6 74-28 83-10 3-20 2-30 2h-41c-15 0-29 0-40-11-20-21-13-62-13-89 0-49-2-97 26-139 5-8 12-15 19-21Z"/>
</svg>
