<svg xmlns="http://www.w3.org/2000/svg" xmlns:xlink="http://www.w3.org/1999/xlink" width="1024" height="1024" fill="none">
  <defs>
    <path id="c" fill="#F50" d="M467 203c-11-7-22-15-34-20a236 236 0 0 0-158-13c-6 1-12 3-16 8-7 7-3 15 2 22 10 13 25 30 40 36v3c-13 3-25 12-36 19A379 379 0 0 0 92 598c4 45 15 89 34 129a423 423 0 0 0 415 242c168-8 328-128 376-289a378 378 0 0 0-157-421c-11-7-23-17-35-20 12-11 25-22 36-35 6-6 12-14 8-23-3-7-10-8-16-10-13-3-27-6-41-7-59-6-117 9-165 45 4-30 19-59 34-85l13-20c4-6 8-11 6-18-2-9-10-13-17-16l-38-13c-7-3-15-5-21 1-8 8-14 21-20 31-19 33-37 76-37 114Z"/>
    <path id="h" fill="#F50" d="M497 385c-15 2-30 3-44 7-41 10-80 30-110 59a251 251 0 0 0-76 149c-5 38-1 76 11 113a250 250 0 0 0 411 92 249 249 0 0 0-35-377 253 253 0 0 0-157-43Z"/>
    <path id="m" fill="#F50" d="M507 444c-13 5-9 26-9 36 0 5 0 9 2 14 3 6 11 9 18 7 12-5 9-24 9-34 0-5 1-11-1-15-4-7-12-11-19-8Zm50 228c12-13 19-31 17-50-1-7-10-19-7-26 4-7 13-13 19-19l41-41c7-7 19-16 15-28-3-6-11-10-18-7-8 3-15 13-22 19l-38 38c-5 6-11 14-18 18-5 2-13-3-19-4a61 61 0 0 0-53 105c10 9 23 14 36 14l14-1c3 0 7-2 10-1 5 3 8 9 11 13l24 28c5 6 11 14 20 13 10-2 13-13 9-22-4-7-11-13-16-19-8-10-15-22-25-30Z"/>
    <path id="r" fill="#F50" d="M332 617c-11 4-14 20-3 25 8 5 23 2 32 2 4 0 8 1 12-1 11-4 11-19 1-25-7-5-23-2-31-2l-11 1Zm323 0c-11 4-13 19-4 25 4 2 8 2 12 2 10 0 24 3 32-1 11-4 11-20 1-25-3-2-8-2-12-2-9 0-21-2-29 1ZM508 759c-13 5-10 23-10 35 0 4-1 10 1 14 3 8 11 12 19 9 13-5 10-24 9-36 0-4 1-9-1-13-3-7-11-12-18-9Z"/>
  </defs>
  <g clip-path="url(#a)">
    <g filter="url(#b)">
      <use xlink:href="#c"/>
    </g>
    <g filter="url(#d)">
      <use xlink:href="#c"/>
    </g>
    <g filter="url(#e)">
      <use xlink:href="#c"/>
    </g>
    <g filter="url(#f)">
      <use xlink:href="#c"/>
    </g>
    <path fill="#F93" d="M467 203c-11-7-22-15-34-20a236 236 0 0 0-158-13c-6 1-12 3-16 8-7 7-3 15 2 22 10 13 25 30 40 36v3c-13 3-25 12-36 19A379 379 0 0 0 92 598c4 45 15 89 34 129a423 423 0 0 0 415 242c168-8 328-128 376-289a378 378 0 0 0-157-421c-11-7-23-17-35-20 12-11 25-22 36-35 6-6 12-14 8-23-3-7-10-8-16-10-13-3-27-6-41-7-59-6-117 9-165 45 4-30 19-59 34-85l13-20c4-6 8-11 6-18-2-9-10-13-17-16l-38-13c-7-3-15-5-21 1-8 8-14 21-20 31-19 33-37 76-37 114Z"/>
    <path fill="#0D0B05" d="M540 86a275 275 0 0 0-45 137c0 8 1 15-7 21-6 4-13 1-18-3-11-9-22-18-34-24-26-15-56-23-86-25-18-1-36 2-54 3 6 8 14 14 22 20 16 12 34 22 51 31 10 5 28 9 26 23-2 10-15 16-22 22a213 213 0 0 0-45 52c15 0 29 0 44-2a272 272 0 0 0 118-47c6-4 14-11 23-11 7 0 15 7 21 11a311 311 0 0 0 146 50l21-1c-1-7-5-13-9-18-9-14-20-26-32-37-8-6-22-14-23-25-1-13 15-16 24-20 17-8 32-17 47-28 7-6 16-12 22-20a215 215 0 0 0-179 48c-6 5-14 13-22 11-17-4-12-30-11-42 3-31 15-59 29-86 6-11 14-21 18-32l-25-8Zm138 181c4 8 11 12 17 18 11 14 23 27 31 43 3 7 9 17 7 25-1 7-8 11-14 13-14 5-29 5-43 5-57 0-119-24-163-59l-39 24c-38 21-81 35-124 35-14 0-30 0-43-5-6-2-13-7-13-15-1-9 6-18 11-25 8-13 18-26 29-37 7-7 15-12 21-20-8-3-19-13-27-12-9 0-21 9-28 14a332 332 0 0 0-111 99 342 342 0 0 0-27 365c18 34 41 66 69 93 75 70 176 113 279 114a412 412 0 0 0 306-137 341 341 0 0 0-6-467c-23-26-52-49-82-66-8-4-21-15-30-15-7 0-14 7-20 10Z"/>
    <g filter="url(#g)">
      <use xlink:href="#h"/>
    </g>
    <g filter="url(#i)">
      <use xlink:href="#h"/>
    </g>
    <g filter="url(#j)">
      <use xlink:href="#h"/>
    </g>
    <g filter="url(#k)">
      <use xlink:href="#h"/>
    </g>
    <path fill="#F93" d="M497 385c-15 2-30 3-44 7-41 10-80 30-110 59a251 251 0 0 0-76 149c-5 38-1 76 11 113a250 250 0 0 0 411 92 249 249 0 0 0-35-377 253 253 0 0 0-157-43Z"/>
    <path fill="#0D0B05" d="M496 413c-42 6-83 18-117 44a220 220 0 0 0-22 328 224 224 0 0 0 339-33c54-81 46-194-19-267a223 223 0 0 0-181-72Z"/>
    <g filter="url(#l)">
      <use xlink:href="#m"/>
    </g>
    <g filter="url(#n)">
      <use xlink:href="#m"/>
    </g>
    <g filter="url(#o)">
      <use xlink:href="#m"/>
    </g>
    <g filter="url(#p)">
      <use xlink:href="#m"/>
    </g>
    <path fill="#F93" d="M507 444c-13 5-9 26-9 36 0 5 0 9 2 14 3 6 11 9 18 7 12-5 9-24 9-34 0-5 1-11-1-15-4-7-12-11-19-8Zm50 228c12-13 19-31 17-50-1-7-10-19-7-26 4-7 13-13 19-19l41-41c7-7 19-16 15-28-3-6-11-10-18-7-8 3-15 13-22 19l-38 38c-5 6-11 14-18 18-5 2-13-3-19-4a61 61 0 0 0-53 105c10 9 23 14 36 14l14-1c3 0 7-2 10-1 5 3 8 9 11 13l24 28c5 6 11 14 20 13 10-2 13-13 9-22-4-7-11-13-16-19-8-10-15-22-25-30Z"/>
    <g filter="url(#q)">
      <use xlink:href="#r"/>
    </g>
    <g filter="url(#s)">
      <use xlink:href="#r"/>
    </g>
    <g filter="url(#t)">
      <use xlink:href="#r"/>
    </g>
    <g filter="url(#u)">
      <path fill="#F93" d="M332 617c-11 4-14 20-3 25 8 5 23 2 32 2 4 0 8 1 12-1 11-4 11-19 1-25-7-5-23-2-31-2l-11 1Zm323 0c-11 4-13 19-4 25 4 2 8 2 12 2 10 0 24 3 32-1 11-4 11-20 1-25-3-2-8-2-12-2-9 0-21-2-29 1ZM508 759c-13 5-10 23-10 35 0 4-1 10 1 14 3 8 11 12 19 9 13-5 10-24 9-36 0-4 1-9-1-13-3-7-11-12-18-9Z"/>
    </g>
    <path fill="#0D0B05" d="m507 598-13 5c-30 19-9 66 25 60 35-6 35-57 1-65h-13Z"/>
  </g>
  <defs>
    <filter id="b" width="950.4" height="1025.3" x="37" y="-1" color-interpolation-filters="sRGB" filterUnits="userSpaceOnUse">
      <feFlood flood-opacity="0" result="BackgroundImageFix"/>
      <feBlend in="SourceGraphic" in2="BackgroundImageFix" result="shape"/>
      <feGaussianBlur result="effect1_foregroundBlur_10_59" stdDeviation="27.5"/>
    </filter>
    <filter id="d" width="890.4" height="965.3" x="67" y="29" color-interpolation-filters="sRGB" filterUnits="userSpaceOnUse">
      <feFlood flood-opacity="0" result="BackgroundImageFix"/>
      <feBlend in="SourceGraphic" in2="BackgroundImageFix" result="shape"/>
      <feGaussianBlur result="effect1_foregroundBlur_10_59" stdDeviation="12.5"/>
    </filter>
    <filter id="e" width="870.4" height="945.3" x="77" y="39" color-interpolation-filters="sRGB" filterUnits="userSpaceOnUse">
      <feFlood flood-opacity="0" result="BackgroundImageFix"/>
      <feBlend in="SourceGraphic" in2="BackgroundImageFix" result="shape"/>
      <feGaussianBlur result="effect1_foregroundBlur_10_59" stdDeviation="7.5"/>
    </filter>
    <filter id="f" width="860.4" height="935.3" x="82" y="44" color-interpolation-filters="sRGB" filterUnits="userSpaceOnUse">
      <feFlood flood-opacity="0" result="BackgroundImageFix"/>
      <feBlend in="SourceGraphic" in2="BackgroundImageFix" result="shape"/>
      <feGaussianBlur result="effect1_foregroundBlur_10_59" stdDeviation="5"/>
    </filter>
    <filter id="g" width="895.9" height="892.5" x="65" y="184" color-interpolation-filters="sRGB" filterUnits="userSpaceOnUse">
      <feFlood flood-opacity="0" result="BackgroundImageFix"/>
      <feBlend in="SourceGraphic" in2="BackgroundImageFix" result="shape"/>
      <feGaussianBlur result="effect1_foregroundBlur_10_59" stdDeviation="100"/>
    </filter>
    <filter id="i" width="545.9" height="542.5" x="240" y="359" color-interpolation-filters="sRGB" filterUnits="userSpaceOnUse">
      <feFlood flood-opacity="0" result="BackgroundImageFix"/>
      <feBlend in="SourceGraphic" in2="BackgroundImageFix" result="shape"/>
      <feGaussianBlur result="effect1_foregroundBlur_10_59" stdDeviation="12.5"/>
    </filter>
    <filter id="j" width="525.9" height="522.5" x="250" y="369" color-interpolation-filters="sRGB" filterUnits="userSpaceOnUse">
      <feFlood flood-opacity="0" result="BackgroundImageFix"/>
      <feBlend in="SourceGraphic" in2="BackgroundImageFix" result="shape"/>
      <feGaussianBlur result="effect1_foregroundBlur_10_59" stdDeviation="7.5"/>
    </filter>
    <filter id="k" width="515.9" height="512.5" x="255" y="374" color-interpolation-filters="sRGB" filterUnits="userSpaceOnUse">
      <feFlood flood-opacity="0" result="BackgroundImageFix"/>
      <feBlend in="SourceGraphic" in2="BackgroundImageFix" result="shape"/>
      <feGaussianBlur result="effect1_foregroundBlur_10_59" stdDeviation="5"/>
    </filter>
    <filter id="l" width="590.8" height="699.6" x="252" y="243" color-interpolation-filters="sRGB" filterUnits="userSpaceOnUse">
      <feFlood flood-opacity="0" result="BackgroundImageFix"/>
      <feBlend in="SourceGraphic" in2="BackgroundImageFix" result="shape"/>
      <feGaussianBlur result="effect1_foregroundBlur_10_59" stdDeviation="100"/>
    </filter>
    <filter id="n" width="240.8" height="349.6" x="427" y="418" color-interpolation-filters="sRGB" filterUnits="userSpaceOnUse">
      <feFlood flood-opacity="0" result="BackgroundImageFix"/>
      <feBlend in="SourceGraphic" in2="BackgroundImageFix" result="shape"/>
      <feGaussianBlur result="effect1_foregroundBlur_10_59" stdDeviation="12.5"/>
    </filter>
    <filter id="o" width="220.8" height="329.6" x="437" y="428" color-interpolation-filters="sRGB" filterUnits="userSpaceOnUse">
      <feFlood flood-opacity="0" result="BackgroundImageFix"/>
      <feBlend in="SourceGraphic" in2="BackgroundImageFix" result="shape"/>
      <feGaussianBlur result="effect1_foregroundBlur_10_59" stdDeviation="7.5"/>
    </filter>
    <filter id="p" width="210.8" height="319.6" x="442" y="433" color-interpolation-filters="sRGB" filterUnits="userSpaceOnUse">
      <feFlood flood-opacity="0" result="BackgroundImageFix"/>
      <feBlend in="SourceGraphic" in2="BackgroundImageFix" result="shape"/>
      <feGaussianBlur result="effect1_foregroundBlur_10_59" stdDeviation="5"/>
    </filter>
    <filter id="q" width="781.4" height="602.9" x="122" y="415" color-interpolation-filters="sRGB" filterUnits="userSpaceOnUse">
      <feFlood flood-opacity="0" result="BackgroundImageFix"/>
      <feBlend in="SourceGraphic" in2="BackgroundImageFix" result="shape"/>
      <feGaussianBlur result="effect1_foregroundBlur_10_59" stdDeviation="100"/>
    </filter>
    <filter id="s" width="431.4" height="252.9" x="297" y="590" color-interpolation-filters="sRGB" filterUnits="userSpaceOnUse">
      <feFlood flood-opacity="0" result="BackgroundImageFix"/>
      <feBlend in="SourceGraphic" in2="BackgroundImageFix" result="shape"/>
      <feGaussianBlur result="effect1_foregroundBlur_10_59" stdDeviation="12.5"/>
    </filter>
    <filter id="t" width="411.4" height="232.9" x="307" y="600" color-interpolation-filters="sRGB" filterUnits="userSpaceOnUse">
      <feFlood flood-opacity="0" result="BackgroundImageFix"/>
      <feBlend in="SourceGraphic" in2="BackgroundImageFix" result="shape"/>
      <feGaussianBlur result="effect1_foregroundBlur_10_59" stdDeviation="7.5"/>
    </filter>
    <filter id="u" width="401.4" height="222.9" x="312" y="605" color-interpolation-filters="sRGB" filterUnits="userSpaceOnUse">
      <feFlood flood-opacity="0" result="BackgroundImageFix"/>
      <feBlend in="SourceGraphic" in2="BackgroundImageFix" result="shape"/>
      <feGaussianBlur result="effect1_foregroundBlur_10_59" stdDeviation="5"/>
    </filter>
    <clipPath id="a">
      <path fill="#fff" d="M0 0h1024v1024H0z"/>
    </clipPath>
  </defs>
</svg>
